<?xml version="1.0"?>
<svg xmlns="http://www.w3.org/2000/svg" xmlns:svg="http://www.w3.org/2000/svg"
  id="svg1" width="100%" height="100%" viewBox="0 0 500 500" preserveAspectRatio="xMaxYMax">
 <g display="inline" stroke="null">
  <g fill="#000000" id="layer1">
   <path stroke="null" id="svg_1" d="m44.596635,464.685284c-1.435213,-0.339892 -3.250334,-1.444541 -4.812183,-2.761623c-4.052365,-3.568866 -4.812183,-10.919032 -1.604061,-15.465088c1.350788,-1.869406 5.192092,-4.758489 6.374032,-4.758489c0.633182,0 0.675394,-8.114923 0.675394,-88.754311l0,-88.754311l-1.435213,-0.254919c-0.759818,-0.169946 -1.857334,-0.679784 -2.406092,-1.147136c-0.548758,-0.509838 -1.308576,-1.104649 -1.688485,-1.402055c-2.448304,-1.784433 -4.010153,-7.095246 -3.292546,-11.173951c0.675394,-3.738813 3.883516,-7.477625 7.387123,-8.624761l1.435213,-0.509838l0,-88.117013c0,-74.436358 -0.084424,-88.117013 -0.59097,-88.117013c-1.350788,0 -4.643335,-2.379244 -6.120759,-4.418597c-5.234304,-7.05276 -1.393,-17.164548 7.091638,-18.736549c5.656426,-1.062163 10.426397,1.317082 12.916913,6.457949l1.266364,2.634163l87.6746,0l87.716812,0.042487l0.253273,-1.147136c0.168849,-0.637298 0.548758,-1.444541 0.886455,-1.741947c0.295485,-0.297406 0.548758,-0.807244 0.548758,-1.062163c0,-0.722271 1.899546,-2.719136 3.714668,-3.866272c3.250334,-2.039352 9.708791,-2.039352 12.579216,0.042487c2.448304,1.784433 5.234304,5.650705 5.234304,7.222706c0,0.467352 17.306975,0.552325 87.759025,0.552325l87.801237,0l1.308576,-2.761623c2.406092,-5.098381 7.13385,-7.435139 12.916913,-6.372976c4.052365,0.722271 7.344911,3.696326 8.822336,7.90249c1.899546,5.3533 -0.844243,11.853735 -6.078547,14.402925l-2.152819,1.062163l0.126636,88.541878l0.084424,88.499392l1.646273,0.679784c2.026182,0.807244 4.896607,3.611353 5.994123,5.863138c1.224152,2.54919 1.097515,7.392652 -0.253273,10.154275c-1.224152,2.54919 -3.376971,4.673516 -5.783062,5.735678l-1.815122,0.807244l0,88.074527l0,88.074527l1.815122,0.807244c2.448304,1.147136 5.572002,4.546056 6.374032,6.9253c1.857334,5.480759 -0.422121,11.42887 -5.572002,14.487898c-1.77291,1.019676 -2.406092,1.147136 -5.825274,1.147136c-3.714668,0 -3.925728,-0.042487 -6.036335,-1.487028c-1.941758,-1.317082 -4.685547,-4.588543 -4.685547,-5.608219c0,-0.169946 -39.806041,-0.339892 -88.434419,-0.339892l-88.434419,0l-0.802031,1.614487c-0.928667,1.784433 -3.081486,3.908759 -5.234304,5.055894c-0.970879,0.552325 -2.363879,0.722271 -5.14988,0.764757c-3.376971,0 -4.010153,-0.12746 -5.74085,-1.147136c-2.279455,-1.402055 -3.545819,-2.719136 -4.516698,-4.631029l-0.717606,-1.444541l-88.307782,-0.12746l-88.349994,-0.084973l-0.844243,1.656974c-0.802031,1.614487 -3.419183,4.078705 -5.403153,5.140867c-1.224152,0.594811 -6.585093,0.934703 -8.31579,0.467352zm190.503356,-13.383249c0.886455,-4.418597 4.769971,-8.837193 8.653487,-9.771896l1.139728,-0.254919l-0.084424,-21.540658l-0.126636,-21.540658l-1.266364,-0.254919c-2.659364,-0.552325 -5.698638,-3.059028 -7.007214,-5.820651l-0.886455,-1.82692l-54.327015,0l-54.369227,0l-0.759818,1.69946c-0.844243,1.869406 -3.123698,4.163678 -5.360941,5.395786c-1.013091,0.552325 -2.363879,0.722271 -5.192092,0.764757c-3.292546,0 -4.010153,-0.12746 -5.487577,-1.019676c-3.588031,-2.166812 -5.656426,-5.268327 -6.289608,-9.262058c-0.633182,-4.248651 1.815122,-9.092112 5.783062,-11.598816l2.406092,-1.487028l0,-55.317431l0,-55.274944l-1.266364,-0.424865c-0.675394,-0.254919 -1.77291,-0.934703 -2.406092,-1.529514c-0.633182,-0.594811 -1.308576,-1.104649 -1.435213,-1.104649c-0.379909,0 -2.912637,-5.310813 -2.912637,-6.118057c0,-0.637298 -1.98397,-0.679784 -22.16137,-0.679784c-21.992521,0 -22.16137,0 -22.16137,0.84973c0,1.019676 -2.406092,5.948111 -2.870425,5.948111c-0.211061,0 -0.970879,0.552325 -1.77291,1.274595c-0.886455,0.764757 -2.195031,1.402055 -3.630243,1.69946l-2.279455,0.467352l0,88.329446l0,88.329446l1.604061,0.297406c1.350788,0.254919 3.250334,1.147136 3.883516,1.869406c0.126636,0.12746 0.717606,0.552325 1.350788,0.97719c1.604061,1.019676 3.588031,4.673516 3.925728,7.180219l0.295485,2.039352l87.294691,0l87.252479,0l0.464333,-2.294271zm198.650298,0.807244c0.337697,-1.784433 1.688485,-5.013408 2.448304,-5.990597c2.152819,-2.634163 4.516698,-4.206164 7.007214,-4.631029l1.77291,-0.297406l0,-87.904581l0,-87.904581l-1.013091,0c-1.857334,0 -4.34785,-1.189622 -6.120759,-2.931569c-1.646273,-1.614487 -3.841304,-5.480759 -3.841304,-6.712868c0,-0.424865 -4.601123,-0.552325 -21.485976,-0.552325l-21.485976,0l-0.548758,1.614487c-1.139728,3.568866 -3.714668,6.585408 -6.796153,7.860004l-1.604061,0.679784l0,54.72262l0,54.72262l1.815122,0.807244c2.448304,1.147136 5.572002,4.546056 6.374032,6.9253c1.857334,5.480759 -0.422121,11.42887 -5.572002,14.487898c-1.77291,1.019676 -2.406092,1.147136 -5.825274,1.147136c-3.75688,0 -3.925728,-0.042487 -6.162971,-1.572001c-1.393,-0.97719 -2.828213,-2.464217 -3.714668,-3.951245l-1.477425,-2.336758l-54.706924,0l-54.749137,0l-0.548758,1.359568c-1.139728,2.804109 -4.516698,5.693192 -7.302699,6.245516l-1.308576,0.297406l-0.126636,21.540658l-0.084424,21.540658l1.139728,0.254919c0.675394,0.12746 2.237243,0.934703 3.503607,1.784433c2.786001,1.869406 4.854395,5.098381 5.276517,8.199896l0.295485,2.081839l87.294691,0l87.294691,0l0.253273,-1.487028zm-198.608086,-67.765977c0.886455,-4.248651 4.854395,-8.582274 8.611275,-9.516977l1.139728,-0.254919l-0.084424,-21.285739l-0.126636,-21.285739l-2.152819,-0.934703c-1.224152,-0.467352 -2.743789,-1.402055 -3.461395,-1.996866c-1.435213,-1.274595 -3.461395,-4.333624 -3.461395,-5.268327c0,-0.552325 -2.532728,-0.637298 -21.317127,-0.637298l-21.274915,0l-0.422121,1.487028c-0.464333,1.784433 -3.545819,4.928435 -6.036335,6.20303c-4.34785,2.251785 -9.539942,1.189622 -13.339034,-2.634163c-2.448304,-2.464217 -3.461395,-4.885948 -3.461395,-8.284869c0,-2.464217 1.350788,-5.905624 3.039274,-7.860004c1.139728,-1.359568 4.263425,-3.356434 5.192092,-3.356434c0.548758,0 0.633182,-2.634163 0.633182,-22.305416c0,-20.945847 -0.042212,-22.305416 -0.717606,-22.305416c-2.195031,0 -6.078547,-3.823786 -7.387123,-7.265192l-0.970879,-2.506704l-21.190491,0c-21.063854,0 -21.232703,0 -21.232703,0.84973c0,1.019676 -2.363879,5.948111 -2.870425,5.948111c-0.168849,0 -0.844243,0.509838 -1.519637,1.104649c-1.18194,1.147136 -4.221213,2.294271 -6.036335,2.294271l-0.970879,0l0,54.977539l0,54.935052l2.026182,0.297406c4.305638,0.594811 8.90676,5.310813 9.582154,9.814383l0.253273,1.911893l53.567197,0l53.524985,0l0.464333,-2.124325zm132.123976,0c1.013091,-4.800975 5.107668,-8.922166 9.455518,-9.559464l1.98397,-0.297406l0,-54.552673l0,-54.552673l-1.224152,0c-2.152819,0 -4.601123,-1.189622 -6.458456,-3.101515c-1.815122,-1.869406 -3.714668,-5.098381 -3.714668,-6.415462c0,-0.637298 -1.857334,-0.679784 -21.739249,-0.679784c-21.5704,0 -21.739249,0 -21.739249,0.84973c0,1.019676 -2.363879,5.948111 -2.870425,5.948111c-0.168849,0 -0.802031,0.467352 -1.435213,1.019676c-0.59097,0.594811 -1.77291,1.359568 -2.617152,1.69946l-1.519637,0.637298l0,21.625631l0,21.668118l1.18194,0.212433c1.730697,0.339892 5.023244,3.483893 6.289608,5.990597c2.321667,4.50357 1.055303,10.961519 -2.786001,14.148006c-5.783062,4.800975 -13.170186,3.781299 -17.897944,-2.464217c-0.633182,-0.84973 -1.139728,-1.954379 -1.139728,-2.421731l0,-0.934703l-21.274915,0l-21.274915,0l-1.097515,2.251785c-1.266364,2.591677 -3.545819,4.631029 -6.458456,5.778165l-2.026182,0.807244l-0.126636,21.285739l-0.084424,21.285739l1.139728,0.254919c3.714668,0.764757 8.146942,5.693192 8.780124,9.72941l0.253273,1.911893l53.989318,0l53.947106,0l0.464333,-2.124325zm-131.955128,-67.086193c0.211061,-1.019676 0.633182,-2.166812 0.970879,-2.464217c0.337697,-0.339892 0.59097,-0.84973 0.59097,-1.104649c0,-1.317082 4.643335,-4.970921 6.289608,-4.970921c0.464333,0 0.970879,-0.169946 1.097515,-0.424865c0.337697,-0.552325 4.221213,-0.552325 5.192092,-0.042487c0.379909,0.254919 1.224152,0.509838 1.815122,0.637298c2.490516,0.552325 7.13385,6.07557 7.13385,8.582274c0.042212,1.911893 -0.422121,1.869406 21.317127,1.784433l20.641733,-0.12746l0.379909,-1.911893c0.211061,-1.019676 0.970879,-2.761623 1.646273,-3.866272c1.393,-2.081839 4.769971,-4.631029 6.205184,-4.631029c0.464333,0 0.970879,-0.169946 1.097515,-0.424865c0.126636,-0.212433 0.717606,-0.424865 1.308576,-0.424865l1.013091,0l0,-21.243253l0,-21.243253l-1.435213,0c-1.561849,0 -4.263425,-1.019676 -5.192092,-1.954379c-0.337697,-0.297406 -0.928667,-0.807244 -1.350788,-1.104649c-1.350788,-0.97719 -2.912637,-3.993732 -3.376971,-6.457949c-0.464333,-2.634163 -0.084424,-5.778165 1.013091,-7.90249c1.519637,-2.931569 6.542881,-6.372976 9.286669,-6.372976l1.055303,0l0,-21.625631l0,-21.625631l-1.899546,-0.254919c-1.013091,-0.169946 -2.743789,-0.807244 -3.799092,-1.402055c-2.152819,-1.189622 -5.107668,-4.843462 -5.360941,-6.500435l-0.126636,-1.062163l-21.148279,-0.12746l-21.148279,-0.084973l-0.759818,1.911893c-0.802031,2.209298 -3.714668,5.438273 -5.276517,5.948111c-0.59097,0.169946 -1.18194,0.552325 -1.350788,0.807244c-0.211061,0.297406 -1.77291,0.467352 -4.221213,0.467352c-3.588031,-0.042487 -4.094577,-0.12746 -6.036335,-1.317082c-2.110607,-1.274595 -5.107668,-5.013408 -5.360941,-6.755354c-0.126636,-0.84973 -0.464333,-0.84973 -21.232703,-0.84973l-21.106067,0l-0.548758,1.82692c-0.337697,0.97719 -0.759818,1.784433 -0.928667,1.784433c-0.211061,0 -0.759818,0.637298 -1.224152,1.402055c-0.506546,0.807244 -1.604061,1.784433 -2.57494,2.209298c-0.928667,0.424865 -1.688485,0.934703 -1.688485,1.147136c0,0.169946 -0.422121,0.339892 -0.928667,0.339892c-0.548758,0 -1.393,0.12746 -1.899546,0.254919l-0.970879,0.254919l0,21.200766c0,18.948982 0.084424,21.200766 0.675394,21.200766c1.477425,0 5.14988,1.996866 7.007214,3.823786c1.18194,1.147136 2.279455,2.719136 2.659364,3.781299c0.844243,2.421731 0.802031,6.712868 -0.042212,8.794707c-1.519637,3.696326 -4.981032,6.627895 -8.400214,7.137733l-1.899546,0.297406l0,21.668118c0,21.328226 0,21.625631 0.844243,21.625631c0.464333,0 0.844243,0.212433 0.844243,0.424865c0,0.254919 0.422121,0.424865 0.886455,0.424865c3.123698,0 8.400214,6.033084 8.400214,9.60195l0,1.019676l20.768369,-0.084973l20.768369,-0.12746l0.379909,-1.869406zm131.99734,-66.236463c0,-1.189622 1.815122,-4.37611 3.292546,-5.735678c0.295485,-0.297406 0.970879,-0.84973 1.435213,-1.317082c0.928667,-0.84973 4.727759,-2.379244 5.909699,-2.379244c0.717606,0 0.759818,-2.719136 0.759818,-54.552673l0,-54.552673l-1.98397,-0.297406c-3.925728,-0.552325 -8.653487,-5.140867 -9.286669,-8.922166l-0.253273,-1.487028l-54.369227,0l-54.411439,0l0,1.062163c0,3.356434 -4.474486,8.327355 -8.146942,9.092112l-1.350788,0.297406l-0.126636,21.115793l-0.084424,21.115793l1.139728,0.212433c3.883516,0.84973 7.682608,4.716002 8.484639,8.624761l0.337697,1.572001l20.937218,0.12746l20.895006,0.084973l0.295485,-1.741947c0.168849,-0.97719 0.886455,-2.67665 1.604061,-3.781299c2.57494,-3.993732 7.302699,-5.820651 12.494791,-4.843462c2.701577,0.509838 3.123698,0.722271 5.487577,2.889082c4.812183,4.461083 4.896607,12.40606 0.168849,17.249521c-0.928667,0.892217 -2.152819,1.784433 -2.786001,1.954379c-0.59097,0.12746 -1.097515,0.424865 -1.097515,0.637298c0,0.212433 -0.295485,0.382379 -0.633182,0.382379c-0.548758,0 -0.633182,2.719136 -0.633182,22.092983l0,22.092983l1.477425,0.594811c3.292546,1.402055 6.965002,5.778165 6.965002,8.327355c0,0.84973 0.253273,0.84973 21.739249,0.84973c20.472885,0 21.739249,-0.042487 21.739249,-0.764757zm67.28614,-1.317082c0.633182,-1.869406 1.561849,-3.356434 2.659364,-4.37611c1.941758,-1.82692 3.123698,-2.54919 5.234304,-3.186488l2.490516,-0.722271l0,-88.074527l0,-88.03204l-1.899546,-0.297406c-1.055303,-0.12746 -1.899546,-0.424865 -1.899546,-0.594811c0,-0.169946 -0.422121,-0.467352 -0.928667,-0.594811c-2.026182,-0.552325 -4.981032,-4.291137 -5.867486,-7.392652l-0.506546,-1.784433l-87.759025,0l-87.716812,0l0,0.97719c-0.042212,2.591677 -3.714668,7.605085 -6.078547,8.199896c-0.59097,0.12746 -1.097515,0.424865 -1.097515,0.594811c0,0.212433 -0.506546,0.424865 -1.139728,0.509838l-1.18194,0.12746l-0.126636,21.753091l-0.084424,21.753091l0.928667,0.254919c3.841304,1.147136 6.796153,3.738813 8.231366,7.265192l0.759818,1.869406l54.242591,0l54.242591,0l1.013091,-2.124325c0.548758,-1.189622 1.139728,-2.124325 1.350788,-2.124325c0.168849,0 0.464333,-0.382379 0.59097,-0.892217c0.422121,-1.232109 4.263425,-3.568866 6.753941,-4.036218c4.136789,-0.807244 8.400214,0.722271 11.186215,3.993732c2.870425,3.39892 3.588031,7.095246 2.279455,11.55633c-0.802031,2.67665 -4.136789,6.330489 -6.627305,7.265192l-1.561849,0.552325l0.084424,54.977539l0.126636,54.977539l1.561849,0.637298c2.701577,1.062163 5.867486,4.588543 6.500668,7.180219c0.168849,0.679784 0.379909,1.359568 0.464333,1.572001c0.084424,0.169946 9.835427,0.297406 21.612612,0.297406l21.401551,0l0.759818,-2.081839zm-330.521002,-0.297406c0.717606,-2.846596 4.474486,-7.05276 6.880578,-7.647571l0.970879,-0.254919l0,-54.680133l0,-54.637646l-1.561849,-0.84973c-2.617152,-1.402055 -4.263425,-3.101515 -5.445365,-5.650705c-3.419183,-7.265192 0.844243,-15.592548 8.737912,-16.994602c5.276517,-0.934703 10.806306,2.251785 12.916913,7.392652l0.759818,1.869406l53.82047,0l53.82047,0l0.970879,-2.081839c1.815122,-3.823786 4.179001,-5.905624 8.020305,-7.05276l0.928667,-0.254919l-0.084424,-21.753091l-0.126636,-21.753091l-0.970879,-0.12746c-3.208122,-0.467352 -7.72482,-5.183354 -8.31579,-8.667247l-0.295485,-1.614487l-87.759025,0c-86.197176,0 -87.759025,0 -87.759025,0.807244c0,2.634163 -3.799092,7.775031 -6.162971,8.369842c-0.548758,0.12746 -1.013091,0.424865 -1.013091,0.594811c0,0.169946 -0.759818,0.424865 -1.688485,0.594811l-1.688485,0.254919l0,87.649662l0,87.649662l2.321667,0.764757c1.266364,0.382379 2.532728,0.97719 2.828213,1.274595c0.295485,0.297406 1.097515,0.892217 1.730697,1.317082c1.308576,0.84973 3.672456,4.631029 3.672456,5.863138c0,0.679784 1.350788,0.722271 22.119158,0.722271l22.119158,0l0.253273,-1.104649zm66.357473,-0.84973c0.928667,-2.421731 4.052365,-5.735678 6.289608,-6.627895l1.688485,-0.679784l0.126636,-21.710604c0.084424,-21.498172 0.084424,-21.710604 -0.759818,-21.710604c-0.464333,0 -0.844243,-0.12746 -0.844243,-0.339892c0,-0.169946 -0.802031,-0.722271 -1.77291,-1.274595c-3.039274,-1.656974 -5.023244,-5.22584 -5.318729,-9.432004c-0.253273,-4.37611 1.815122,-8.327355 5.825274,-10.876545c1.730697,-1.104649 2.237243,-1.232109 5.909699,-1.232109c3.503607,0 4.221213,0.12746 5.698638,1.019676c3.081486,1.869406 6.120759,6.118057 6.120759,8.582274c0,0.764757 0.59097,0.807244 20.852794,0.807244l20.852794,0l0.253273,-1.911893c0.168849,-1.062163 0.464333,-1.911893 0.675394,-1.911893c0.168849,0 0.506546,-0.509838 0.759818,-1.147136c0.759818,-2.209298 4.052365,-4.758489 6.965002,-5.395786l1.139728,-0.254919l-0.084424,-21.115793l-0.126636,-21.115793l-1.266364,-0.254919c-1.477425,-0.297406 -3.292546,-1.359568 -4.981032,-2.931569c-1.308576,-1.189622 -3.250334,-5.013408 -3.250334,-6.372976l0,-0.892217l-54.03153,0l-54.03153,0l0,1.062163c0,1.614487 -1.857334,5.013408 -3.545819,6.500435c-2.068395,1.784433 -3.461395,2.506704 -5.867486,2.846596l-1.98397,0.297406l0,54.127808l0,54.127808l1.013091,0c1.477425,0 4.643335,1.444541 6.542881,2.974055c1.646273,1.359568 3.841304,4.843462 3.841304,6.118057c0,0.637298 1.98397,0.679784 21.274915,0.679784l21.274915,0l0.759818,-1.954379z"/>
  </g>
 </g>
 <g display="inline">
  <ellipse stroke="null" ry="13.061147" rx="13.061147" id="60" cy="453.137085" cx="47.915047" stroke-linecap="null" stroke-linejoin="null" stroke-dasharray="null" stroke-width="5" fill="#000000"/>
  <ellipse id="30" stroke="null" ry="13.061147" rx="13.061147" cy="251.934997" cx="46.826625" stroke-linecap="null" stroke-linejoin="null" stroke-dasharray="null" stroke-width="5" fill="#000000"/>
  <ellipse id="00" stroke="null" ry="13.061147" rx="13.061147" cy="53.018582" cx="48.374612" stroke-linecap="null" stroke-linejoin="null" stroke-dasharray="null" stroke-width="5" fill="#000000"/>
  <ellipse id="11" stroke="null" ry="13.061147" rx="13.061147" cy="120.356049" cx="114.164084" stroke-linecap="null" stroke-linejoin="null" stroke-dasharray="null" stroke-width="5" fill="#000000"/>
  <ellipse id="31" stroke="null" ry="13.061147" rx="13.061147" cy="252.70899" cx="113.390089" stroke-linecap="null" stroke-linejoin="null" stroke-dasharray="null" stroke-width="5" fill="#000000"/>
  <ellipse id="51" stroke="null" ry="13.061147" rx="13.061147" cy="387.383912" cx="114.938078" stroke-linecap="null" stroke-linejoin="null" stroke-dasharray="null" stroke-width="5" fill="#000000"/>
  <ellipse id="22" stroke="null" ry="13.061147" rx="13.061147" cy="186.145522" cx="180.72756" stroke-linecap="null" stroke-linejoin="null" stroke-dasharray="null" stroke-width="5" fill="#000000"/>
  <ellipse id="32" stroke="null" ry="13.061147" rx="13.061147" cy="253.482985" cx="180.727553" stroke-linecap="null" stroke-linejoin="null" stroke-dasharray="null" stroke-width="5" fill="#000000"/>
  <ellipse id="42" stroke="null" ry="13.061147" rx="13.061147" cy="320.820446" cx="180.72755" stroke-linecap="null" stroke-linejoin="null" stroke-dasharray="null" stroke-width="5" fill="#000000"/>
  <ellipse id="03" stroke="null" ry="13.061147" rx="13.061147" cy="53.018594" cx="246.517023" stroke-linecap="null" stroke-linejoin="null" stroke-dasharray="null" stroke-width="5" fill="#000000"/>
  <ellipse id="13" stroke="null" ry="13.061147" rx="13.061147" cy="119.582062" cx="246.517027" stroke-linecap="null" stroke-linejoin="null" stroke-dasharray="null" stroke-width="5" fill="#000000"/>
  <ellipse id="23" stroke="null" ry="13.061147" rx="13.061147" cy="186.919518" cx="246.51702" stroke-linecap="null" stroke-linejoin="null" stroke-dasharray="null" stroke-width="5" fill="#000000"/>
  <ellipse id="43" stroke="null" ry="13.061147" rx="13.061147" cy="320.820445" cx="247.291021" stroke-linecap="null" stroke-linejoin="null" stroke-dasharray="null" stroke-width="5" fill="#000000"/>
  <ellipse id="53" stroke="null" ry="13.061147" rx="13.061147" cy="388.157905" cx="247.291021" stroke-linecap="null" stroke-linejoin="null" stroke-dasharray="null" stroke-width="5" fill="#000000"/>
  <ellipse id="63" stroke="null" ry="13.061147" rx="13.061147" cy="453.947387" cx="246.517029" stroke-linecap="null" stroke-linejoin="null" stroke-dasharray="null" stroke-width="5" fill="#000000"/>
  <ellipse id="24" stroke="null" ry="13.061147" rx="13.061147" cy="186.919512" cx="313.080504" stroke-linecap="null" stroke-linejoin="null" stroke-dasharray="null" stroke-width="5" fill="#000000"/>
  <ellipse id="34" stroke="null" ry="13.061147" rx="13.061147" cy="254.256975" cx="313.080497" stroke-linecap="null" stroke-linejoin="null" stroke-dasharray="null" stroke-width="5" fill="#000000"/>
  <ellipse id="44" stroke="null" ry="13.061147" rx="13.061147" cy="321.594436" cx="313.080494" stroke-linecap="null" stroke-linejoin="null" stroke-dasharray="null" stroke-width="5" fill="#000000"/>
  <ellipse id="15" stroke="null" ry="13.061147" rx="13.061147" cy="120.743042" cx="379.643973" stroke-linecap="null" stroke-linejoin="null" stroke-dasharray="null" stroke-width="5" fill="#000000"/>
  <ellipse id="35" stroke="null" ry="13.061147" rx="13.061147" cy="253.095983" cx="378.869979" stroke-linecap="null" stroke-linejoin="null" stroke-dasharray="null" stroke-width="5" fill="#000000"/>
  <ellipse id="55" stroke="null" ry="13.061147" rx="13.061147" cy="387.770905" cx="380.417968" stroke-linecap="null" stroke-linejoin="null" stroke-dasharray="null" stroke-width="5" fill="#000000"/>
  <ellipse id="66" stroke="null" ry="13.061147" rx="13.061147" cy="454.316223" cx="446.352553" stroke-linecap="null" stroke-linejoin="null" stroke-dasharray="null" stroke-width="5" fill="#000000"/>
  <ellipse id="36" stroke="null" ry="13.061147" rx="13.061147" cy="253.114135" cx="446.812119" stroke-linecap="null" stroke-linejoin="null" stroke-dasharray="null" stroke-width="5" fill="#000000"/>
  <ellipse id="06" stroke="null" ry="13.061147" rx="13.061147" cy="54.19772" cx="446.812119" stroke-linecap="null" stroke-linejoin="null" stroke-dasharray="null" stroke-width="5" fill="#000000"/>
 </g>
</svg>
