<!DOCTYPE svg PUBLIC "-//W3C//DTD SVG 20010904//EN" "http://www.w3.org/TR/2001/REC-SVG-20010904/DTD/svg10.dtd">
<svg version="1.0" xmlns="http://www.w3.org/2000/svg" width="1001px" height="1001px" viewBox="0 0 10010 10010" preserveAspectRatio="xMidYMid meet">
<g id="layer1" fill="#000000" stroke="none">
 <path d="M205 9971 c-34 -8 -77 -34 -114 -65 -96 -84 -114 -257 -38 -364 32 -44 123 -112 151 -112 15 0 16 -191 16 -2089 l0 -2089 -34 -6 c-18 -4 -44 -16 -57 -27 -13 -12 -31 -26 -40 -33 -58 -42 -95 -167 -78 -263 16 -88 92 -176 175 -203 l34 -12 0 -2074 c0 -1752 -2 -2074 -14 -2074 -32 0 -110 -56 -145 -104 -124 -166 -33 -404 168 -441 134 -25 247 31 306 152 l30 62 2077 0 2078 1 6 -27 c4 -15 13 -34 21 -41 7 -7 13 -19 13 -25 0 -17 45 -64 88 -91 77 -48 230 -48 298 1 58 42 124 133 124 170 0 11 410 13 2079 13 l2080 0 31 -65 c57 -120 169 -175 306 -150 96 17 174 87 209 186 45 126 -20 279 -144 339 l-51 25 3 2084 2 2083 39 16 c48 19 116 85 142 138 29 60 26 174 -6 239 -29 60 -80 110 -137 135 l-43 19 0 2073 0 2073 43 19 c58 27 132 107 151 163 44 129 -10 269 -132 341 -42 24 -57 27 -138 27 -88 0 -93 -1 -143 -35 -46 -31 -111 -108 -111 -132 0 -4 -943 -8 -2095 -8 l-2095 0 -19 38 c-22 42 -73 92 -124 119 -23 13 -56 17 -122 18 -80 0 -95 -3 -136 -27 -54 -33 -84 -64 -107 -109 l-17 -34 -2092 -3 -2093 -2 -20 39 c-19 38 -81 96 -128 121 -29 14 -156 22 -197 11z m4513 -315 c21 -104 113 -208 205 -230 l27 -6 -2 -507 -3 -507 -30 -6 c-63 -13 -135 -72 -166 -137 l-21 -43 -1287 0 -1288 0 -18 40 c-20 44 -74 98 -127 127 -24 13 -56 17 -123 18 -78 0 -95 -3 -130 -24 -85 -51 -134 -124 -149 -218 -15 -100 43 -214 137 -273 l57 -35 0 -1302 0 -1301 -30 -10 c-16 -6 -42 -22 -57 -36 -15 -14 -31 -26 -34 -26 -9 0 -69 -125 -69 -144 0 -15 -47 -16 -525 -16 -521 0 -525 0 -525 20 0 24 -57 140 -68 140 -5 0 -23 13 -42 30 -21 18 -52 33 -86 40 l-54 11 0 2079 0 2079 38 7 c32 6 77 27 92 44 3 3 17 13 32 23 38 24 85 110 93 169 l7 48 2068 0 2067 0 11 -54z m4706 19 c8 -42 40 -118 58 -141 51 -62 107 -99 166 -109 l42 -7 0 -2069 0 -2069 -24 0 c-44 0 -103 -28 -145 -69 -39 -38 -91 -129 -91 -158 0 -10 -109 -13 -509 -13 l-509 0 -13 38 c-27 84 -88 155 -161 185 l-38 16 0 1288 0 1288 43 19 c58 27 132 107 151 163 44 129 -10 269 -132 341 -42 24 -57 27 -138 27 -89 0 -93 -1 -146 -37 -33 -23 -67 -58 -88 -93 l-35 -55 -1296 0 -1297 0 -13 32 c-27 66 -107 134 -173 147 l-31 7 -3 507 -2 507 27 6 c16 3 53 22 83 42 66 44 115 120 125 193 l7 49 2068 0 2068 0 6 -35z m-4705 -1595 c21 -100 115 -202 204 -224 l27 -6 -2 -501 -3 -501 -51 -22 c-29 -11 -65 -33 -82 -47 -34 -30 -82 -102 -82 -124 0 -13 -60 -15 -505 -15 l-504 0 -10 35 c-11 42 -84 116 -143 146 -103 53 -226 28 -316 -62 -58 -58 -82 -115 -82 -195 0 -58 32 -139 72 -185 27 -32 101 -79 123 -79 13 0 15 -62 15 -525 0 -493 -1 -525 -17 -525 -52 0 -144 -90 -175 -171 l-23 -59 -502 0 c-499 0 -503 0 -503 20 0 24 -56 140 -68 140 -4 0 -20 12 -36 26 -28 27 -100 54 -143 54 l-23 0 0 1294 0 1293 48 7 c102 14 211 125 227 231 l6 45 1269 0 1268 0 11 -50z m3130 0 c24 -113 121 -210 224 -225 l47 -7 0 -1284 0 -1284 -29 0 c-51 0 -109 -28 -153 -73 -43 -44 -88 -120 -88 -151 0 -15 -44 -16 -515 -16 -511 0 -515 0 -515 20 0 24 -56 140 -68 140 -4 0 -19 11 -34 24 -14 14 -42 32 -62 40 l-36 15 0 509 0 510 28 5 c41 8 119 82 149 141 55 106 25 258 -66 333 -137 113 -312 89 -424 -58 -15 -20 -27 -46 -27 -57 l0 -22 -504 0 -504 0 -26 53 c-30 61 -84 109 -153 136 l-48 19 -3 501 -2 501 27 6 c88 18 193 134 208 229 l6 45 1279 0 1278 0 11 -50z m-3126 -1579 c5 -24 15 -51 23 -58 8 -8 14 -20 14 -26 0 -31 110 -117 149 -117 11 0 23 -4 26 -10 8 -13 100 -13 123 -1 9 6 29 12 43 15 59 13 169 143 169 202 1 45 -10 44 505 42 l489 -3 9 -45 c5 -24 23 -65 39 -91 33 -49 113 -109 147 -109 11 0 23 -4 26 -10 3 -5 17 -10 31 -10 l24 0 0 -500 0 -500 -34 0 c-37 0 -101 -24 -123 -46 -8 -7 -22 -19 -32 -26 -32 -23 -69 -94 -80 -152 -11 -62 -2 -136 24 -186 36 -69 155 -150 220 -150 l25 0 0 -509 0 -509 -45 -6 c-24 -4 -65 -19 -90 -33 -51 -28 -121 -114 -127 -153 l-3 -25 -501 -3 -501 -2 -18 45 c-19 52 -88 128 -125 140 -14 4 -28 13 -32 19 -5 7 -42 11 -100 11 -85 -1 -97 -3 -143 -31 -50 -30 -121 -118 -127 -159 -3 -20 -11 -20 -503 -20 l-500 0 -13 43 c-8 23 -18 42 -22 42 -5 0 -18 15 -29 33 -12 19 -38 42 -61 52 -22 10 -40 22 -40 27 0 4 -10 8 -22 8 -13 0 -33 3 -45 6 l-23 6 0 499 c0 446 2 499 16 499 35 0 122 47 166 90 28 27 54 64 63 89 20 57 19 158 -1 207 -36 87 -118 156 -199 168 l-45 7 0 510 c0 502 0 509 20 509 11 0 20 5 20 10 0 6 10 10 21 10 74 0 199 142 199 226 l0 24 492 -2 492 -3 9 -44z m3127 -1559 c0 -28 43 -103 78 -135 7 -7 23 -20 34 -31 22 -20 112 -56 140 -56 17 0 18 -64 18 -1284 l0 -1284 -47 -7 c-93 -13 -205 -121 -220 -210 l-6 -35 -1288 0 -1289 0 0 25 c0 79 -106 196 -193 214 l-32 7 -3 497 -2 497 27 5 c92 20 182 111 201 203 l8 37 496 3 495 2 7 -41 c4 -23 21 -63 38 -89 61 -94 173 -137 296 -114 64 12 74 17 130 68 114 105 116 292 4 406 -22 21 -51 42 -66 46 -14 3 -26 10 -26 15 0 5 -7 9 -15 9 -13 0 -15 64 -15 520 l0 520 35 14 c78 33 165 136 165 196 0 20 6 20 515 20 485 0 515 -1 515 -18z m1594 -31 c15 -44 37 -79 63 -103 46 -43 74 -60 124 -75 l59 -17 0 -2073 0 -2072 -45 -7 c-25 -3 -45 -10 -45 -14 0 -4 -10 -11 -22 -14 -48 -13 -118 -101 -139 -174 l-12 -42 -2079 0 -2078 0 0 23 c-1 61 -88 179 -144 193 -14 3 -26 10 -26 14 0 5 -12 10 -27 12 l-28 3 -3 512 -2 512 22 6 c91 27 161 88 195 171 l18 44 1285 0 1285 0 24 -50 c13 -28 27 -50 32 -50 4 0 11 -9 14 -21 10 -29 101 -84 160 -95 98 -19 199 17 265 94 68 80 85 167 54 272 -19 63 -98 149 -157 171 l-37 13 2 1294 3 1294 37 15 c64 25 139 108 154 169 4 16 9 32 11 37 2 4 233 7 512 7 l507 0 18 -49z m-7830 -7 c17 -67 106 -166 163 -180 l23 -6 0 -1287 0 -1286 -37 -20 c-62 -33 -101 -73 -129 -133 -81 -171 20 -367 207 -400 125 -22 256 53 306 174 l18 44 1275 0 1275 0 23 -49 c43 -90 99 -139 190 -166 l22 -6 -2 -512 -3 -512 -23 -3 c-76 -11 -183 -122 -197 -204 l-7 -38 -2079 0 c-2042 0 -2079 0 -2079 19 0 62 -90 183 -146 197 -13 3 -24 10 -24 14 0 4 -18 10 -40 14 l-40 6 0 2063 0 2063 55 18 c30 9 60 23 67 30 7 7 26 21 41 31 31 20 87 109 87 138 0 16 32 17 524 17 l524 0 6 -26z m1572 -20 c22 -57 96 -135 149 -156 l40 -16 3 -511 c2 -506 2 -511 -18 -511 -11 0 -20 -3 -20 -8 0 -4 -19 -17 -42 -30 -72 -39 -119 -123 -126 -222 -6 -103 43 -196 138 -256 41 -26 53 -29 140 -29 83 0 100 3 135 24 73 44 145 144 145 202 0 18 14 19 494 19 l494 0 6 -45 c4 -25 11 -45 16 -45 4 0 12 -12 18 -27 18 -52 96 -112 165 -127 l27 -6 -2 -497 -3 -497 -30 -6 c-35 -7 -78 -32 -118 -69 -31 -28 -77 -118 -77 -150 l0 -21 -1280 0 -1280 0 0 25 c0 38 -44 118 -84 153 -49 42 -82 59 -139 67 l-47 7 0 1274 0 1274 24 0 c35 0 110 34 155 70 39 32 91 114 91 144 0 15 47 16 504 16 l504 0 18 -46z"/>
 </g>
</svg>
